<?xml version="1.0" encoding="UTF-8"?><svg id="Capa_2" xmlns="http://www.w3.org/2000/svg" viewBox="0 0 3336.73 559.95"><defs><style>.cls-1{fill:#e31e27;}</style></defs><g id="Artwork_2"><path class="cls-1" d="m752.23,0v119.81l-40.82-40.82v-27.38c0-7.24-5.87-13.1-13.1-13.1h-27.38L632.42,0h119.81Zm-69.4,138.25c1.37,0,2.73-.04,2.73-1.59,0-1.27-1.05-1.56-2.16-1.56h-2.05v3.15h1.48Zm-1.48,4.99h-1.12v-9.09h3.48c2.05,0,2.96.89,2.96,2.51s-1.05,2.32-2.28,2.54l2.71,4.03h-1.31l-2.56-4.03h-1.88v4.03Zm-4.9-4.54c0,3.76,2.83,6.74,6.64,6.74s6.64-2.98,6.64-6.74-2.83-6.74-6.64-6.74-6.64,2.98-6.64,6.74m14.49,0c0,4.41-3.42,7.86-7.86,7.86s-7.86-3.44-7.86-7.86,3.42-7.86,7.86-7.86,7.86,3.44,7.86,7.86m1.39-71.14l-28.89,79h-13.17l-20.44-56.47-20.28,56.47h-13.17l-28.9-79h14.78l20.27,55.12c.28.77,1.37.76,1.65,0l20.12-55.12h11.37l19.81,55.23c.28.77,1.36.78,1.65,0l20.42-55.24h14.78Zm-165.69,68.35c-17.06,0-28.52-11.73-28.52-29.19s11.46-28.69,28.52-28.69,28.53,11.53,28.53,28.69-11.46,29.19-28.53,29.19m0-71.31c-25.38,0-43.11,17.32-43.11,42.13s17.73,42.46,43.11,42.46,43.11-17.46,43.11-42.46-17.73-42.13-43.11-42.13m-68.09-44.86h14.26v126.81h-14.26V19.74Zm-33.55,30.3v16.64c0,.48.39.88.88.88h21.96v13.27h-21.96c-.48,0-.88.39-.88.88v64.85h-14.26v-64.85c0-.48-.39-.88-.88-.88h-16.54v-13.27h16.54c.48,0,.88-.39.88-.88v-16.81c0-18.31,11.25-30.13,28.66-30.13,2.81,0,5.86.3,9.1.89v12.8c-1.99-.25-6.68-.42-8.77-.42-9.08,0-14.73,6.52-14.73,17.02m-76.79,86.2c-16.03,0-26.39-11.46-26.39-29.19s10.17-29.18,27.21-29.18c8.18,0,15.26.53,23.99,1.81.43.06.76.44.76.87v46.71c0,.3-.16.59-.41.75-9.09,5.83-16.46,8.23-25.16,8.23m-.66-71.15c-24.12,0-39.82,16.34-39.99,41.63,0,25.29,15.81,42.29,39.33,42.29,9.58,0,17.75-2.4,26.88-7.95v5.48h14.26v-77.08l-1.25-.24c-16.37-3.17-25.53-4.13-39.23-4.13m-41.57.66h1.54v14.09h-1.54c-9.56,0-18.2.24-28.72,1.39-.45.05-.8.43-.8.88v64.45h-14.26v-76.61l1.27-.23c14.75-2.63,29.05-3.97,42.5-3.97m-73.83,1.81h14.26v77.03l-1.19.28c-10.71,2.52-27.17,4.15-41.92,4.15-20.91,0-32.43-11.58-32.43-32.6v-48.87h14.26v46.73c0,14.36,7.02,21.95,20.31,21.95,8.39,0,17.12-.66,25.96-1.97.43-.06.76-.44.76-.88v-65.84Zm-71.68,63.88l2.38,12.34-1.31.41c-9.48,2.98-20.54,4.84-28.89,4.84-25.79,0-43.11-17-43.11-42.29s17.72-41.96,44.1-41.96c8.6,0,18.99,1.64,26.46,4.19l1.26.43-2.18,11.97-1.6-.41c-8.48-2.16-16.97-3.4-23.28-3.4-18.43,0-30.33,11.52-30.33,29.35s11.66,29.18,29.02,29.18c6.17,0,15.85-1.58,25.9-4.22l1.59-.42Zm-119.83,4.81c-16.03,0-26.39-11.46-26.39-29.19s10.17-29.18,27.21-29.18c8.18,0,15.26.53,23.99,1.81.43.06.76.44.76.87v46.71c0,.3-.16.59-.41.75-9.09,5.83-16.46,8.23-25.16,8.23m-.66-71.15C15.87,65.1.17,81.43,0,106.73c0,25.29,15.81,42.29,39.33,42.29,9.58,0,17.75-2.4,26.88-7.95v5.48h14.26v-77.08l-1.25-.24c-16.36-3.17-25.53-4.13-39.23-4.13"/><path class="cls-1" d="m75.81,303.23h46.58l-5.94,28.77h1.37c16.9-21.92,42.93-35.17,70.33-35.17,37.45,0,57.55,16.9,47.04,66.68l-39.28,185.42h-49.32l35.62-168.53c6.85-31.97,0-44.3-24.66-44.3-20.1,0-42.47,15.99-49.33,47.96l-35.17,164.87H23.75l52.06-245.71Z"/><path class="cls-1" d="m306.9,432.47l-2.74,14.16c-7.31,32.88-11.87,74.9,25.12,74.9s47.5-40.19,50.69-54.8h46.58c-11.42,54.35-51.61,88.6-105.04,88.6-40.19,0-87.23-11.87-63.48-125.6,13.7-64.4,42.02-132.9,119.2-132.9,68.51,0,78.1,41.1,63.48,109.61l-5.48,26.03h-128.34Zm86.32-33.8l2.74-13.25c6.85-31.06,1.83-54.81-26.03-54.81-31.51,0-47.95,31.06-54.81,63.03l-.91,5.02h79.01Z"/><path class="cls-1" d="m579.1,520.16h-1.37c-16.9,21.92-42.93,35.17-70.33,35.17-36.54,0-57.55-16.9-44.3-80.38l36.54-171.72h49.32l-37.45,176.29c-5.48,27.4,4.57,36.54,25.58,36.54s43.39-13.7,48.87-41.1l36.54-171.72h49.33l-52.07,245.71h-46.58l5.94-28.77Z"/><path class="cls-1" d="m715.65,303.23h49.32l-8.22,38.36h.91c16.9-27.4,38.82-44.76,66.68-44.76,5.48,0,8.68.91,11.42,1.83l-10.5,50.24c-3.2-.91-11.88-2.74-20.1-2.74-22.38,0-51.15,10.05-61.2,55.72l-31.06,147.06h-49.32l52.07-245.71Z"/><path class="cls-1" d="m973.22,497.78c-1.83,9.13,1.83,17.36,9.13,17.36,3.2,0,6.39-.46,8.22-1.37l-6.85,31.97c-6.39,2.74-15.53,5.94-25.12,5.94-21.92,0-38.36-8.68-34.71-32.43h-.91c-18.27,24.21-40.19,36.08-68.96,36.08-39.28,0-59.37-21.92-49.33-68.96,11.88-54.81,37.91-66.22,73.53-77.18l40.65-10.5c18.73-5.02,31.06-10.05,35.62-31.51,4.57-22.38,0-36.54-26.03-36.54-32.88,0-42.47,23.29-47.5,47.04h-46.58c10.96-52.07,38.36-80.84,103.22-80.84,43.39,0,74.44,16.9,65.31,60.29l-29.69,140.67Zm-30.14-78.55c-14.62,10.05-43.39,15.98-59.37,22.83-15.53,6.85-24.66,21.47-28.77,39.73-4.11,20.55,2.28,36.99,22.84,36.99,29.69,0,48.87-22.38,56.63-58.46l8.68-41.1Z"/><path class="cls-1" d="m1080.55,222.84h49.33l-69.42,326.09h-49.33l69.42-326.09Z"/><path class="cls-1" d="m1140.42,191.32h130.73l37.06,254.94h1l145.25-254.94h130.73l-235.41,357.62h-126.22l-83.14-357.62Z"/><path class="cls-1" d="m1600.22,191.32h119.21l-76.13,357.62h-119.21l76.13-357.62Z"/><path class="cls-1" d="m2013.93,296c1-12.52-2.5-22.54-13.02-30.05-10.52-7.51-28.05-11.52-55.6-11.52-40.07,0-64.61,11.52-69.62,35.06-2.5,12.02,4.51,19.03,22.04,22.04,29.05,5.01,117.7,18.53,151.26,24.54,64.11,11.52,98.67,38.57,85.15,101.68-25.54,121.21-183.32,122.21-232.4,122.21-121.21,0-204.35-21.54-189.83-121.21h141.25c-1.5,13.52.5,24.54,11.02,32.06,10.02,7.51,28.55,12.02,59.6,12.02s64.11-7.01,70.62-37.57c4.01-19.03-9.52-25.54-49.59-32.06l-115.7-18.03c-71.12-11.02-91.66-48.08-80.64-101.18,10.02-47.08,53.09-113.7,209.87-113.7,129.72,0,201.35,31.05,190.83,115.7h-135.24Z"/><path class="cls-1" d="m2231.81,191.32h119.21l-76.13,357.62h-119.21l76.13-357.62Z"/><path class="cls-1" d="m2637.01,180.3c126.22,0,224.39,41.57,192.83,189.83-31.55,148.26-147.26,189.83-273.47,189.83s-223.89-41.57-192.33-189.83c31.55-148.26,146.75-189.83,272.97-189.83Zm-63.61,299.52c64.11,0,114.2-34.56,130.23-109.69,16.03-74.63-19.53-109.69-83.65-109.69s-113.7,35.06-129.73,109.69c-16.03,75.13,19.53,109.69,83.14,109.69Z"/><path class="cls-1" d="m2917.5,191.32h137.24l118.21,223.89h1l47.58-223.89h115.2l-76.13,357.62h-131.73l-123.21-225.89h-1l-48.08,225.89h-115.2l76.13-357.62Z"/></g></svg>